# xmcd
#
# Track frame offsets: 
#        150
#        24057
#        51152
#        76538
#        92335
#        114748
#        134969
#        163424
#        185837
#        208221
#        227581
#        245309
#        264951
#
# Disc length: 3814 seconds
#
# Revision: 0
# Processed by: cddbd v1.5.2PL0 Copyright (c) Steve Scherf et al.
# Submitted via: ExactAudioCopy v1.0b1
#
DISCID=ab0ee40d
DTITLE=The Soul Express Orchestra - Time for a change
DYEAR=2010
DGENRE=R&B
TTITLE0=Use Your Head
TTITLE1=The Light
TTITLE2=Come
TTITLE3=It's been long
TTITLE4=Conscience of Jealousy
TTITLE5=Gates of Hell
TTITLE6=Back Inside
TTITLE7=The Way we go
TTITLE8=Live and learn
TTITLE9=Time for a change
TTITLE10=Robbery
TTITLE11=Still Standing
TTITLE12=Money
EXTD=
EXTT0=
EXTT1=
EXTT2=
EXTT3=
EXTT4=
EXTT5=
EXTT6=
EXTT7=
EXTT8=
EXTT9=
EXTT10=
EXTT11=
EXTT12=
PLAYORDER=
